<svg width="25" height="25" viewBox="0 0 25 25" fill="currentColor" xmlns="http://www.w3.org/2000/svg">
	<path d="M16.0621 18.1936L13.5404 17.5975V16.7961L16.0649 16.2956V14.4362L17.0991 14.3433V12.4995H14.8732V10.849L17.0991 10.7073H17.0981V9.21133L18.0373 9.10184V5.70323L17.0981 5.32877V3.53562L12.0187 1L6.93829 3.53562V5.32877L6 5.70323V9.10184L6.93829 9.21041V10.7073L9.16326 10.849V20.5609L10.496 21.0927V23.241L12.0187 24L13.5404 23.241V21.0927L16.0649 20.0935L16.0594 18.1982L16.0621 18.1936ZM10.6739 4.91016L10.6794 4.90832L12.0187 4.44002L13.3625 4.91016V8.16801L12.0187 7.90028L10.6739 8.16893V4.91016Z" />
</svg>