<svg width="25" height="25" viewBox="0 0 25 25" fill="currentColor" xmlns="http://www.w3.org/2000/svg">
<path d="M12.08 9.91C12.08 11.1 11.1 12.08 9.91 12.08C8.72 12.08 7.74 11.1 7.74 9.91C7.74 8.72 8.72 7.74 9.91 7.74C11.1 7.74 12.08 8.72 12.08 9.91ZM9.91 12.92C8.72 12.92 7.74 13.9 7.74 15.09C7.74 16.28 8.72 17.26 9.91 17.26C11.1 17.26 12.08 16.28 12.08 15.09C12.08 13.9 11.1 12.92 9.91 12.92ZM23 12.5C23 18.31 18.31 23 12.5 23C6.69 23 2 18.31 2 12.5C2 6.69 6.69 2 12.5 2C18.31 2 23 6.69 23 12.5ZM20.2 12.5C20.2 8.23 16.77 4.8 12.5 4.8C8.23 4.8 4.8 8.23 4.8 12.5C4.8 16.77 8.23 20.2 12.5 20.2C16.77 20.2 20.2 16.77 20.2 12.5ZM15.09 12.92C13.9 12.92 12.92 13.9 12.92 15.09C12.92 16.28 13.9 17.26 15.09 17.26C16.28 17.26 17.26 16.28 17.26 15.09C17.26 13.9 16.28 12.92 15.09 12.92ZM15.09 7.74C13.9 7.74 12.92 8.72 12.92 9.91C12.92 11.1 13.9 12.08 15.09 12.08C16.28 12.08 17.26 11.1 17.26 9.91C17.26 8.72 16.28 7.74 15.09 7.74Z" />
</svg>