<?xml version="1.0" encoding="UTF-8"?><svg id="Layer_1" data-name="Layer 1" xmlns="http://www.w3.org/2000/svg" viewBox="0 0 21 23"> <defs> <style> .cls-1 { stroke-width: 0px; } </style> </defs> <path class="cls-1" d="M15.51,4.79H5.49c-.4,0-.72.32-.72.72v5.75c0,2.3,1.71,4.15,3.69,5.38.54.34,1.1.62,1.66.86l.09.04c.06.02.12.05.18.06.03,0,.07,0,.1,0,.1,0,.19-.03.28-.07l.09-.04c.76-.33,2.22-1.03,3.46-2.24,1.24-1.22,1.89-2.6,1.89-4v-5.75c0-.4-.32-.72-.72-.72ZM14.32,11.26c0,.88-.44,1.77-1.32,2.63-.65.64-1.55,1.22-2.5,1.68-.95-.46-1.84-1.04-2.5-1.68-.88-.86-1.32-1.75-1.32-2.63v-4.55h7.64v4.55ZM20.28,0H.72c-.4,0-.72.32-.72.72v10.77c0,2.56,1.18,4.99,3.51,7.21,2.29,2.18,5.12,3.56,6.61,4.2l.09.04s.1.04.15.05c.04,0,.09.01.13.01.1,0,.19-.02.28-.06l.09-.04c.53-.23,1.23-.55,2.02-.97,1.42-.75,3.11-1.82,4.59-3.23,2.33-2.22,3.51-4.64,3.51-7.21V.72c0-.4-.32-.72-.72-.72ZM16.17,17.31c-1.9,1.81-4.24,3.04-5.67,3.69-1.43-.65-3.77-1.88-5.67-3.69-1.94-1.84-2.92-3.8-2.92-5.82V1.92h17.18v9.57c0,2.02-.98,3.98-2.92,5.82Z"/></svg>