<?xml version="1.0" encoding="utf-8"?> <!-- Generator: Adobe Illustrator 24.1.2, SVG Export Plug-In . SVG Version: 6.00 Build 0)  --> <svg version="1.1" id="Layer_1" xmlns="http://www.w3.org/2000/svg" xmlns:xlink="http://www.w3.org/1999/xlink" x="0px" y="0px" viewBox="0 0 25 25" style="enable-background:new 0 0 25 25;" xml:space="preserve"> <path d="M4.5,22C4.2,22,4,21.8,4,21.5V3.5C4,3.2,4.2,3,4.5,3h3.7c0.3,0,0.5,0.1,0.6,0.3l3.6,13.1c0,0.1,0.1,0.1,0.1,0.1 c0.1,0,0.1,0,0.1-0.1l3.6-13.1C16.4,3.1,16.6,3,16.8,3h3.7C20.8,3,21,3.2,21,3.5v18.1c0,0.3-0.2,0.5-0.5,0.5h-2 c-0.3,0-0.5-0.2-0.5-0.5V8.2C18.1,8.1,18,8,18,8c0,0-0.1,0-0.1,0.1l-4.2,13.5c-0.1,0.2-0.3,0.3-0.6,0.3h-1.2c-0.3,0-0.5-0.1-0.6-0.3 L7.1,8.1C7.1,8,7.1,8,7,8c0,0-0.1,0.1-0.1,0.1v13.4c0,0.3-0.2,0.5-0.5,0.5H4.5z"/></svg>