<?xml version="1.0" encoding="utf-8"?><!-- Generator: Adobe Illustrator 24.1.3, SVG Export Plug-In . SVG Version: 6.00 Build 0)  --><svg version="1.1" id="Layer_1" xmlns="http://www.w3.org/2000/svg" xmlns:xlink="http://www.w3.org/1999/xlink" x="0px" y="0px" viewBox="0 0 25 25" style="enable-background:new 0 0 25 25;" xml:space="preserve"><g><g><path d="M20.5,3h-3.7c-0.3,0-0.5,0.1-0.6,0.3l-3.6,13.1c0,0.1-0.1,0.1-0.1,0.1c0,0-0.1,0-0.1-0.1L8.8,3.3C8.7,3.1,8.5,3,8.2,3H4.5C4.2,3,4,3.2,4,3.5v18.1C4,21.8,4.2,22,4.5,22h2c0.3,0,0.5-0.2,0.5-0.5V8.2C6.9,8.1,7,8,7,8c0.1,0,0.1,0,0.2,0.1l4.2,13.5c0.1,0.2,0.3,0.3,0.6,0.3h1.2c0.3,0,0.5-0.1,0.6-0.3l4.2-13.5C17.9,8,17.9,8,18,8c0.1,0,0.1,0.1,0.1,0.1v13.4c0,0.3,0.2,0.5,0.5,0.5h2c0.3,0,0.5-0.2,0.5-0.5V3.5C21,3.2,20.8,3,20.5,3z"/></g></g></svg>