<svg width="13" height="21" viewBox="0 0 13 21" fill="currentColor" xmlns="http://www.w3.org/2000/svg"><path d="M1.69985 21C0.849926 21 0 20.3308 0 19.0712V16.0993C0 14.9185 0.753343 13.5801 1.73848 12.97L5.81426 10.5098L1.73848 8.04967C0.753343 7.43955 0 6.10122 0 4.94002V1.92877C0 0.649485 0.849926 0 1.69985 0C2.06686 0 2.43388 0.118088 2.78157 0.334583L11.9955 5.92409C12.633 6.31771 13 6.90815 13 7.55764C13 8.20712 12.633 8.81724 11.9955 9.19119L9.79346 10.5295L11.9955 11.8679C12.633 12.2615 13 12.8519 13 13.5014C13 14.1509 12.633 14.761 11.9955 15.135L2.78157 20.7048C2.41456 20.8819 2.04755 21 1.69985 21ZM7.80386 11.6907L2.78157 14.7217C2.39525 14.9578 2.02823 15.627 2.02823 16.0797V18.7366L10.74 13.462L7.80386 11.6907ZM2.02823 2.22399V4.90066C2.02823 5.35333 2.39525 6.02249 2.78157 6.25867L7.80386 9.2896L10.74 7.51828L2.02823 2.22399Z" fill="currentColor"/></svg>