<svg width="25" height="25" viewBox="0 0 25 25" fill="currentColor" xmlns="http://www.w3.org/2000/svg">
<path d="M15.3942 21.1642C15.438 20.9452 15.438 4.95976 15.3942 4.6094C12.6789 5.26634 9.96354 5.92327 7.24819 6.53641V17.7919C5.84673 18.3613 4.44526 18.8868 3.0438 19.4124C3.0438 19.4124 3.0438 19.4124 3 19.4124C3 19.3686 3 19.3248 3 19.281C3 14.77 3 10.2153 3 5.6605C3.0438 5.57291 3.13139 5.57291 3.21898 5.52911C7.2044 4.04005 11.1898 2.55099 15.1752 1.06194C15.3066 1.01814 15.438 0.974345 15.6132 1.01814C17.803 1.67508 19.9928 2.28822 22.1826 2.90136C22.2264 2.90136 22.2264 2.90136 22.2702 2.94516V22.1277C21.657 22.3029 21.0001 22.4781 20.3869 22.6533C18.8103 23.0912 17.1898 23.5292 15.6132 23.9672C15.438 24.0109 15.3066 24.0109 15.1752 23.9672C11.2336 22.5219 7.33579 21.0766 3.39416 19.6314C3.30657 19.5876 3.21898 19.5876 3.17518 19.5C7.2482 20.0693 11.3212 20.5949 15.3942 21.1642Z" />
</svg>