<?xml version="1.0" encoding="utf-8"?>
<!-- Generator: Adobe Illustrator 24.2.1, SVG Export Plug-In . SVG Version: 6.00 Build 0)  -->
<svg version="1.1" id="Layer_1" xmlns="http://www.w3.org/2000/svg" xmlns:xlink="http://www.w3.org/1999/xlink" x="0px" y="0px" viewBox="0 0 25 25" style="enable-background:new 0 0 25 25;" xml:space="preserve"><g><g><path d="M10.3,12c0,0.1,0.1,0.2,0.1,0.3c0.1,0.1,0.1,0.1,0.3,0.1v0h0.6c0.1,0,0.2,0,0.3-0.1c0.1-0.1,0.1-0.1,0.1-0.3l1.1-4.5l1.1,4.5c0,0.1,0.1,0.2,0.1,0.3c0.1,0.1,0.2,0.1,0.3,0.1h0.6c0.1,0,0.2,0,0.3-0.1c0.1,0,0.1-0.1,0.1-0.3L17,6.6c0-0.1,0-0.1,0.1-0.2c0,0,0-0.1,0-0.1c0-0.1-0.1-0.2-0.2-0.2h-0.7c-0.1,0-0.2,0-0.3,0.1c-0.1,0-0.1,0.1-0.1,0.3l-1.2,4.7l-1.1-4.7c0-0.1-0.1-0.2-0.1-0.3c-0.1-0.1-0.2-0.1-0.3-0.1h-0.6c-0.1,0-0.2,0-0.3,0.1c-0.1,0-0.1,0.1-0.1,0.3L11,11.1L9.8,6.5c0-0.1-0.1-0.2-0.1-0.3C9.6,6.2,9.6,6.2,9.4,6.2H8.7c-0.1,0-0.2,0.1-0.2,0.2c0,0.1,0,0.1,0.1,0.3L10.3,12z M17.8,12.2c0.2,0.1,0.5,0.2,0.8,0.3c0.3,0.1,0.7,0.1,1.1,0.1c0.4,0,0.7-0.1,1-0.1c0.3-0.1,0.6-0.2,0.8-0.4c0.2-0.2,0.4-0.4,0.5-0.6c0.1-0.2,0.2-0.5,0.2-0.8c0-0.4-0.1-0.7-0.3-1c-0.2-0.3-0.6-0.5-1.1-0.7l-1-0.3c-0.4-0.1-0.6-0.3-0.8-0.4c-0.1-0.1-0.2-0.3-0.2-0.5c0-0.3,0.1-0.5,0.3-0.6s0.5-0.2,0.9-0.2c0.5,0,0.9,0.1,1.3,0.3c0.1,0.1,0.2,0.1,0.3,0.1c0.1,0,0.2-0.1,0.2-0.2V6.8c0-0.1,0-0.2-0.1-0.2c0-0.1-0.1-0.1-0.2-0.2c-0.1,0-0.2-0.1-0.3-0.1c-0.1,0-0.3-0.1-0.4-0.1c-0.2,0-0.3-0.1-0.5-0.1c-0.2,0-0.3,0-0.5,0c-0.3,0-0.6,0-0.9,0.1c-0.3,0.1-0.5,0.2-0.7,0.4c-0.2,0.2-0.4,0.3-0.5,0.6c-0.1,0.2-0.2,0.5-0.2,0.8c0,0.4,0.1,0.7,0.3,1c0.2,0.3,0.6,0.5,1.1,0.7l1,0.3c0.3,0.1,0.6,0.2,0.7,0.4c0.1,0.1,0.2,0.3,0.2,0.5c0,0.3-0.1,0.5-0.4,0.7c-0.2,0.2-0.6,0.2-1,0.2c-0.3,0-0.5,0-0.8-0.1c-0.3-0.1-0.5-0.1-0.8-0.2c-0.1,0-0.1-0.1-0.2-0.1c0,0-0.1,0-0.1,0c-0.1,0-0.2,0.1-0.2,0.2v0.4c0,0.1,0,0.1,0,0.2C17.6,12,17.7,12.1,17.8,12.2z M6,8.8c-0.3,0-0.5-0.1-0.7-0.1c-0.7,0-1.3,0.2-1.7,0.5s-0.6,0.9-0.6,1.4c0,0.6,0.2,1,0.5,1.3c0.3,0.3,0.8,0.5,1.4,0.5c0.8,0,1.5-0.3,2.1-1C6.9,11.7,7,11.9,7,12c0.1,0.1,0.2,0.2,0.3,0.3c0.1,0.1,0.1,0.1,0.2,0.1c0.1,0,0.1,0,0.2-0.1l0.4-0.3c0.1-0.1,0.1-0.1,0.1-0.2c0-0.1,0-0.1-0.1-0.2c-0.1-0.2-0.2-0.4-0.2-0.5c-0.1-0.2-0.1-0.4-0.1-0.6h0V8.3c0-0.8-0.2-1.3-0.6-1.7C7,6.2,6.3,6,5.5,6c-0.4,0-0.7,0-1.1,0.1C4.1,6.2,3.8,6.3,3.5,6.5c-0.1,0-0.2,0.1-0.2,0.1c0,0.1-0.1,0.1-0.1,0.2v0.3c0,0.1,0,0.2,0.1,0.2c0,0,0.1,0,0.1,0c0.1,0,0.1,0,0.2-0.1C4,7.2,4.3,7.1,4.5,7C4.8,7,5.1,7,5.3,7c0.5,0,0.9,0.1,1.1,0.3c0.2,0.2,0.3,0.6,0.3,1.1v0.5C6.5,8.8,6.2,8.8,6,8.8z M6.8,10c0,0.2,0,0.4-0.1,0.6c0,0.2-0.1,0.3-0.2,0.4c-0.2,0.2-0.4,0.4-0.7,0.4c-0.3,0.1-0.5,0.1-0.7,0.1c-0.3,0-0.6-0.1-0.8-0.3c-0.2-0.2-0.3-0.4-0.3-0.7c0-0.3,0.1-0.6,0.3-0.8c0.2-0.2,0.6-0.3,1-0.3c0.2,0,0.4,0,0.7,0c0.2,0,0.4,0.1,0.6,0.1V10z M20.7,15.4c-2.6,1.1-5.4,1.6-7.9,1.6c-3.8,0-7.4-1-10.4-2.8c-0.3-0.2-0.4,0.1-0.2,0.3c2.7,2.5,6.4,4,10.4,4c2.9,0,6.2-0.9,8.5-2.6C21.4,15.7,21,15.3,20.7,15.4z M22.9,14.1c-0.3-0.3-2.4-0.6-3.7,0.3c-0.2,0.1-0.2,0.3,0.1,0.3c0.8-0.1,2.4-0.3,2.7,0.1c0.3,0.4-0.3,1.9-0.6,2.6c-0.1,0.2,0.1,0.3,0.3,0.1C22.8,16.6,23.2,14.4,22.9,14.1z"/></g></g></svg>