<?xml version="1.0" encoding="UTF-8"?><svg id="a" xmlns="http://www.w3.org/2000/svg" viewBox="0 0 25 25"><path d="M23,2h-.67v.65h.67v-.65Zm0,1.94v-.65h-.67v.65h.67Zm-1.34-1.29v.65h.67v-.65h-.67Zm-1.34,1.29h-.67v1.29h.67v-.65h.67v-.65h.67v-.65h-1.34v.65Zm-2,.65v.65h.67v-.65h-.67Zm3.34,.65v-.65h-.67v.65h.67Zm-2,0h-.67v.65h.67v-.65Zm.67,.65h.67v-.65h-.67v.65Zm-.67,.65h-.67v-.65h-1.34v.65h-.67v.65h.67v.65h-.67v-.65h-.67v.65h-.67v.65h-.67v.65h-.67c-1.74,2.11-2.18,3.03-2.88,4.74-.79-1.54-1.73-2.61-3.35-3.31h-.02c-.3-.08-.45-.11-.65,.16-.21,.28-.08,.54,.17,.83,.17,.21,.35,.41,.53,.62,.49,.56,.99,1.13,1.36,1.78,.37,.65,.79,1.55,1.12,2.25,.2,.43,.37,.78,.46,.95,.2,.36,.68,.51,.86,.51,.89-.1,.98-.51,1.12-1.21,.02-.07,.03-.15,.05-.23,.3-1.38,.7-2.8,2.55-4.51v-.65h.67v-.65h.67v-.65h.67v-.65h-.67v-.65h.67v.65h.67v-.65h.67v-.65h.67v-.65h.67v-1.29h-.67v.65Zm-2.24,4.33c.45,.86,.71,1.83,.71,2.86,0,3.49-2.93,6.33-6.54,6.33s-6.51-2.84-6.51-6.33,2.9-6.33,6.51-6.33c.91,0,1.78,.18,2.56,.51l2.29-2.19c-1.42-.81-3.08-1.27-4.85-1.27C6.3,4.42,2,8.58,2,13.71s4.3,9.29,9.6,9.29,9.6-4.16,9.6-9.29c0-1.85-.56-3.57-1.52-5.02l-2.25,2.16Z"/></svg>